<svg width="24" height="24" viewBox="0 0 24 24" fill="none" xmlns="http://www.w3.org/2000/svg">
<path fill-rule="evenodd" clip-rule="evenodd" d="M17.5856 6.53151C17.3269 6.20806 16.8549 6.15562 16.5315 6.41438L12 10.0396L7.46849 6.41438C7.14505 6.15562 6.67308 6.20806 6.41432 6.53151C6.15556 6.85495 6.208 7.32692 6.53145 7.58568L11.5315 11.5857C11.8054 11.8048 12.1946 11.8048 12.4685 11.5857L17.4685 7.58568C17.7919 7.32692 17.8444 6.85495 17.5856 6.53151Z" fill="#00B5F1"/>
<path opacity="0.4" fill-rule="evenodd" clip-rule="evenodd" d="M17.5856 12.5315C17.3269 12.2081 16.8549 12.1556 16.5315 12.4144L12 16.0396L7.46849 12.4144C7.14505 12.1556 6.67308 12.2081 6.41432 12.5315C6.15556 12.855 6.208 13.3269 6.53145 13.5857L11.5315 17.5857C11.8054 17.8048 12.1946 17.8048 12.4685 17.5857L17.4685 13.5857C17.7919 13.3269 17.8444 12.855 17.5856 12.5315Z" fill="#00B5F1"/>
</svg>
