<svg width="25" height="24" viewBox="0 0 25 24" fill="none" xmlns="http://www.w3.org/2000/svg">
<path fill-rule="evenodd" clip-rule="evenodd" d="M6.91438 17.4685C7.17313 17.7919 7.6451 17.8444 7.96855 17.5856L12.5 13.9604L17.0315 17.5856C17.355 17.8444 17.8269 17.7919 18.0857 17.4685C18.3444 17.145 18.292 16.6731 17.9685 16.4143L12.9685 12.4143C12.6946 12.1952 12.3054 12.1952 12.0315 12.4143L7.03151 16.4143C6.70806 16.6731 6.65562 17.145 6.91438 17.4685Z" fill="#00B5F1"/>
<path opacity="0.4" fill-rule="evenodd" clip-rule="evenodd" d="M6.91438 11.4685C7.17313 11.7919 7.6451 11.8444 7.96855 11.5856L12.5 7.96044L17.0315 11.5856C17.355 11.8444 17.8269 11.7919 18.0857 11.4685C18.3444 11.145 18.292 10.6731 17.9685 10.4143L12.9685 6.41432C12.6946 6.19519 12.3054 6.19519 12.0315 6.41432L7.03151 10.4143C6.70806 10.6731 6.65562 11.145 6.91438 11.4685Z" fill="#00B5F1"/>
</svg>
