<svg width="24" height="24" xmlns="http://www.w3.org/2000/svg" fill="#ffb54a"><svg xmlns="http://www.w3.org/2000/svg" width="22" height="22" viewBox="0 0 22 22" fill="none"><path d="M21.0936 21.5001H1.24686C0.840481 21.5001 0.5 21.1706 0.5 20.7533V8.37512C0.686715 7.99071 0.994247 7.86989 1.42259 7.86989C2.60879 7.90284 3.80596 7.88088 4.99216 7.88088C5.13494 7.88088 5.27772 7.88088 5.4205 7.88088V4.1905C5.25575 4.1905 5.10199 4.1905 4.9592 4.1905C4.47594 4.17952 4.23431 3.98182 4.22333 3.50954C4.21234 2.74071 4.20136 1.9609 4.22333 1.19207C4.23431 0.807653 4.54184 0.500122 4.92626 0.500122C8.97908 0.500122 13.0209 0.500122 17.0737 0.500122C17.535 0.500122 17.7767 0.719787 17.7877 1.15912C17.8096 1.94991 17.8096 2.74071 17.7877 3.54249C17.7767 3.97083 17.535 4.17952 17.1067 4.1905C16.931 4.1905 16.7662 4.1905 16.5905 4.1905V7.88088C16.7552 7.88088 16.909 7.88088 17.0518 7.88088C18.238 7.88088 19.4351 7.88088 20.6213 7.88088C21.3023 7.88088 21.489 8.06759 21.489 8.75954C21.489 12.7135 21.489 16.6675 21.5 20.6105C21.489 20.9839 21.3902 21.2805 21.0936 21.5001ZM15.2615 20.259V4.21247H6.73849V20.248H7.90272C7.90272 18.8532 7.90272 17.4802 7.90272 16.1183C7.90272 15.4483 8.13337 15.2616 8.8363 15.2836C10.2092 15.3275 11.5931 15.3495 12.966 15.2836C13.8776 15.2397 14.0973 15.3824 14.0973 16.1842C14.0973 17.4034 14.0973 18.6225 14.0973 19.8307C14.0973 19.9734 14.1083 20.1162 14.1192 20.27H15.2615V20.259ZM1.80701 20.248H5.4205V9.14395H1.80701V20.248ZM20.193 9.13297H16.5795V20.237H20.193V9.13297ZM16.5026 1.75221H5.50837V2.93841H16.5026V1.75221ZM9.19874 20.248H10.341V16.5247H9.19874V20.248ZM11.67 16.5247V20.248H12.8122V16.5247H11.67Z" fill="#ffb54a"></path><path d="M10.3519 7.90288C9.8576 7.84797 9.18763 8.03468 9.17664 7.28782C9.16566 6.50801 9.8576 6.69473 10.3519 6.63981C10.4287 6.13458 10.231 5.42067 11.0438 5.44263C11.7907 5.4646 11.593 6.14556 11.6698 6.63981C12.1641 6.69473 12.878 6.49703 12.8451 7.30979C12.8121 8.0237 12.1641 7.85895 11.6808 7.8919C11.582 8.38615 11.8126 9.08908 10.9559 9.10006C10.5276 9.11104 10.4178 8.85843 10.3519 7.90288Z" fill="#ffb54a"></path><path d="M9.16587 10.956C9.16587 11.2964 8.8803 11.582 8.53982 11.571C8.18835 11.571 7.91377 11.2855 7.92476 10.945C7.93574 10.6155 8.19934 10.3519 8.52884 10.3519C8.86932 10.3409 9.16587 10.6155 9.16587 10.956Z" fill="#ffb54a"></path><path d="M10.9892 11.5712C10.6377 11.5712 10.3631 11.2746 10.3741 10.9341C10.3851 10.5936 10.6816 10.33 11.0331 10.341C11.3626 10.352 11.6262 10.6266 11.6262 10.9561C11.6262 11.2966 11.3406 11.5821 10.9892 11.5712Z" fill="#ffb54a"></path><path d="M14.0863 10.9669C14.0863 11.3074 13.8007 11.582 13.4492 11.582C13.0978 11.571 12.8232 11.2854 12.8342 10.945C12.8452 10.6155 13.1197 10.3629 13.4492 10.3519C13.8007 10.3409 14.0863 10.6265 14.0863 10.9669Z" fill="#ffb54a"></path><path d="M9.16579 13.4052C9.17677 13.7457 8.90219 14.0313 8.55073 14.0423C8.19926 14.0423 7.9137 13.7677 7.9137 13.4272C7.9137 13.1087 8.17729 12.8341 8.50679 12.8121C8.85826 12.7902 9.15481 13.0648 9.16579 13.4052Z" fill="#ffb54a"></path><path d="M10.374 13.4274C10.374 13.087 10.6596 12.8124 11.0111 12.8124C11.3625 12.8124 11.6371 13.1089 11.6261 13.4494C11.6151 13.7789 11.3406 14.0315 11.0111 14.0425C10.6706 14.0425 10.374 13.7569 10.374 13.4274Z" fill="#ffb54a"></path><path d="M14.0862 13.4384C14.0752 13.7789 13.7896 14.0535 13.4382 14.0425C13.0977 14.0315 12.8121 13.735 12.8341 13.3945C12.856 13.065 13.1306 12.8124 13.4601 12.8124C13.8116 12.8124 14.0971 13.0979 14.0862 13.4384Z" fill="#ffb54a"></path><path d="M3.6083 11.5712C3.25684 11.5712 2.98225 11.2746 2.99324 10.9341C3.00422 10.5936 3.30077 10.33 3.65223 10.341C3.98173 10.352 4.24533 10.6266 4.24533 10.9561C4.24533 11.2966 3.95977 11.5821 3.6083 11.5712Z" fill="#ffb54a"></path><path d="M3.62995 14.0316C3.27848 14.0316 2.99292 13.7571 2.99292 13.4166C2.99292 13.0761 3.28947 12.8015 3.62995 12.8015C3.95945 12.8125 4.23403 13.0651 4.24501 13.3946C4.256 13.7461 3.97043 14.0316 3.62995 14.0316Z" fill="#ffb54a"></path><path d="M3.59733 16.4917C3.25685 16.4807 2.97129 16.1841 2.99325 15.8436C3.01522 15.5032 3.31177 15.2396 3.65225 15.2615C3.98175 15.2835 4.24535 15.5581 4.23436 15.8876C4.23436 16.239 3.9488 16.5026 3.59733 16.4917Z" fill="#ffb54a"></path><path d="M4.24539 18.3702C4.23441 18.7106 3.93786 18.9742 3.58639 18.9633C3.24591 18.9523 2.97133 18.6447 2.9933 18.3152C3.01526 17.9858 3.28985 17.7331 3.61934 17.7441C3.97081 17.7331 4.25637 18.0297 4.24539 18.3702Z" fill="#ffb54a"></path><path d="M19.0066 10.978C18.9956 11.3184 18.6991 11.582 18.3476 11.5711C18.0071 11.5601 17.7326 11.2525 17.7545 10.923C17.7765 10.5935 18.0511 10.3409 18.3806 10.3519C18.743 10.3519 19.0286 10.6375 19.0066 10.978Z" fill="#ffb54a"></path><path d="M18.3919 14.0314C18.0404 14.0314 17.7548 13.7458 17.7658 13.4163C17.7658 13.0758 18.0624 12.8012 18.4138 12.8122C18.7433 12.8232 19.0179 13.0868 19.0179 13.4163C19.0179 13.7458 18.7433 14.0314 18.3919 14.0314Z" fill="#ffb54a"></path><path d="M19.0068 15.9428C18.9629 16.2833 18.6663 16.5249 18.3149 16.492C17.9744 16.459 17.7218 16.1295 17.7657 15.8C17.8206 15.4486 18.1282 15.2179 18.4686 15.2728C18.7981 15.3168 19.0398 15.6353 19.0068 15.9428Z" fill="#ffb54a"></path><path d="M18.3809 18.9629C18.0294 18.9629 17.7548 18.6663 17.7658 18.3259C17.7768 17.9854 18.0734 17.7218 18.4248 17.7328C18.7543 17.7437 19.0179 18.0183 19.0179 18.3478C19.0179 18.6883 18.7214 18.9629 18.3809 18.9629Z" fill="#ffb54a"></path></svg></svg>