<svg width="562" height="551" viewBox="0 0 562 551" fill="none" xmlns="http://www.w3.org/2000/svg">
<g filter="url(#filter0_f_2913_5454)">
<ellipse cx="269.023" cy="281.143" rx="240.998" ry="241.488" fill="url(#paint0_linear_2913_5454)"/>
</g>
<path d="M111.489 280.533C111.489 280.533 90.7968 287.638 78.0693 308.412C78.0693 308.412 94.6466 315.896 104.725 312.569C104.725 312.569 98.626 326.401 100.616 351.648C100.616 351.648 126.076 344.068 135.36 334.365C134.407 335.494 144.942 348.604 151.807 351.648C151.807 351.648 169.315 333.009 168.086 308.412" fill="url(#paint1_linear_2913_5454)"/>
<path d="M120.045 282.12C120.045 282.12 104.06 287.378 94.2295 302.735C94.2295 302.735 107.036 308.265 114.82 305.808C114.82 305.808 110.108 316.037 111.641 334.703C111.641 334.703 131.313 329.101 138.488 321.928C137.75 322.758 145.895 332.439 151.187 334.698C151.187 334.698 164.715 320.939 163.763 302.73" fill="url(#paint2_linear_2913_5454)"/>
<path d="M430.187 277.816C430.187 277.816 451.792 268.655 466.397 267.254C466.397 267.254 474.75 266.458 478.73 279.211C481.508 288.124 467.394 302.876 458.635 310.959C454.568 314.698 449.838 317.64 444.69 319.634C433.868 323.83 414.095 331.043 405.916 331.043C405.916 331.043 425.813 302.933 430.187 277.816Z" fill="url(#paint3_linear_2913_5454)"/>
<path d="M183.315 308.412L160.532 333.167L145.995 348.982C145.595 351.478 143.476 366.265 153.65 379.521C164.607 393.799 180.999 394.771 183.315 394.889L229.941 371.32L243.187 364.633C243.187 364.633 200.946 334.766 183.315 308.412Z" fill="url(#paint4_linear_2913_5454)"/>
<path d="M183.315 308.412L160.532 333.167C160.532 333.167 173.756 365.926 229.941 371.309L243.187 364.633C243.187 364.633 200.947 334.766 183.315 308.412Z" fill="url(#paint5_linear_2913_5454)"/>
<path d="M258.44 371.309L256.315 406.129C264.143 414.554 274.464 420.238 285.758 422.344C297.052 424.449 308.722 422.866 319.051 417.826C322.224 414.902 325.234 411.806 328.069 408.552C333.587 402.107 341.112 392.043 349.139 377.555C349.156 377.555 272.233 382.339 258.44 371.309Z" fill="#F0F2F4"/>
<path d="M258.441 371.309L257.358 389.049C257.358 389.049 286.291 411.444 338.858 394.358C342.105 389.586 345.582 384.011 349.156 377.555C349.156 377.555 272.233 382.339 258.441 371.309Z" fill="url(#paint6_linear_2913_5454)"/>
<path d="M117.52 259.139C117.52 259.139 104.725 264.86 104.725 275.23C104.725 275.23 118.782 297.822 131.115 302.606C143.448 307.39 149.293 311.434 172.166 309.44V285.312C172.166 285.312 146.17 286.645 117.52 259.139Z" fill="#475259"/>
<path d="M117.52 259.139C114.32 260.676 111.425 262.781 108.975 265.352C139.339 308.407 172.166 298.647 172.166 298.647V285.312C172.166 285.312 146.17 286.645 117.52 259.139Z" fill="#343D42"/>
<path d="M230.584 153.361C230.584 153.361 229.761 114.886 207.576 107.679C189.471 101.8 163.311 125.917 163.311 125.917C163.311 125.917 103.795 179.41 115.203 259.68C115.203 259.68 127.141 288.118 170.904 290.241" fill="url(#paint7_linear_2913_5454)"/>
<path d="M230.584 153.361C230.584 153.361 229.761 114.887 207.575 107.68C207.575 107.68 202.604 187.713 141.779 283.735C149.383 287.124 158.96 289.665 170.904 290.242" fill="url(#paint8_linear_2913_5454)"/>
<path d="M228.062 167.367C228.062 167.367 178.528 231.354 174.351 286.97C170.175 342.587 293.712 405.98 363.544 374.882C433.375 343.784 450.082 249.891 450.082 249.891C436.374 255.499 415.992 266.304 389.771 267.236C351.577 268.592 314.336 260.142 299.055 252.884C289.298 250.405 271.673 235.545 251.313 212.218C240.125 199.326 232.156 183.953 228.062 167.367Z" fill="url(#paint9_linear_2913_5454)"/>
<path d="M493.147 175.315C502.466 109.539 449.479 47.6044 374.796 36.9806C300.114 26.3568 232.018 71.0664 222.699 136.842C213.38 202.618 266.367 264.553 341.05 275.177C415.732 285.8 483.829 241.091 493.147 175.315Z" fill="url(#paint10_linear_2913_5454)"/>
<path d="M239.445 92.6455C230.648 105.949 224.917 121.048 222.671 136.847C213.359 202.624 266.354 264.55 341.039 275.168C397.321 283.166 449.825 259.743 476.317 219.568C329.242 245.013 264.331 148.827 239.445 92.6455Z" fill="url(#paint11_linear_2913_5454)"/>
<path d="M477.106 101.433C468.157 94.8956 457.985 90.2317 447.198 87.7194C420.705 81.4233 393.077 81.72 366.724 88.5836C327.832 98.7162 301.802 134.401 304.609 173.304C304.696 174.434 304.788 175.579 304.885 176.738C308.076 213.451 336.281 243.34 373.714 249.304C399.553 253.507 426.008 251.736 451.059 244.125C453.021 243.527 454.943 242.854 456.831 242.126C476.159 224.724 489.388 201.703 493.131 175.281C496.845 149.052 490.639 123.46 477.106 101.433Z" fill="#CED0D2"/>
<path d="M448.292 92.7128C422.749 86.8055 396.169 87.0843 370.755 93.5262C333.272 103.021 308.223 136.451 310.922 172.938C311.001 174.011 311.09 175.084 311.187 176.157C314.259 210.576 341.433 238.591 377.485 244.177C402.372 248.116 427.822 246.457 451.989 239.319C456.36 238.024 460.615 236.367 464.711 234.366C479.738 218.111 489.924 197.947 493.131 175.287C496.44 151.921 491.874 129.035 481.294 108.77C471.682 100.931 460.384 95.4343 448.292 92.7128Z" fill="#A5A5A5"/>
<path d="M451.854 239.359L456.848 231.768C486.677 164.02 453.049 94.0007 453.027 93.9555H452.953H452.914C451.386 93.5149 449.842 93.1139 448.269 92.7524C422.737 86.8358 396.165 87.101 370.755 93.5262C333.272 103.021 308.223 136.451 310.922 172.938C311.001 174.011 311.09 175.084 311.187 176.157C314.259 210.576 341.433 238.591 377.485 244.177C402.325 248.108 427.726 246.463 451.854 239.359Z" fill="url(#paint12_linear_2913_5454)"/>
<path d="M170.358 275.958C175.848 289.694 190.565 324.418 246.277 352.206C326.086 392.036 390.867 352.771 398.212 348.817C398.544 348.456 405.404 344.898 408.042 341.097C409.812 338.549 411.57 333.839 410.815 333.263C405.083 336.465 330.973 376.001 255.893 338.199C201.641 310.891 182.347 260.42 178.373 248.898C177.561 248.728 171.908 252.722 169.648 257.641C164.541 268.779 170.369 275.331 170.358 275.958Z" fill="#475259"/>
<path d="M463.663 125.748C460.948 123.841 457.898 122.467 454.672 121.699C429.838 115.825 393.431 117.22 365.535 120.394C352.762 121.835 340.897 127.715 332.001 137.011C323.105 146.308 317.741 158.435 316.841 171.283C316.841 171.436 316.841 171.582 316.813 171.729C316.28 181.581 316.716 191.462 318.115 201.229C328.869 223.527 350.728 240.031 377.485 244.154C402.325 248.086 427.726 246.44 451.854 239.336L456.848 231.745C474.136 192.503 470.105 152.475 463.663 125.748Z" fill="#D87716"/>
<path d="M464.638 129.86C461.588 127.303 457.982 125.498 454.109 124.59C429.99 118.886 394.638 120.241 367.554 123.325C355.15 124.723 343.628 130.433 334.989 139.46C326.35 148.488 321.142 160.263 320.268 172.74C320.268 172.881 320.268 173.028 320.24 173.169C319.591 185.372 320.464 197.608 322.839 209.594C334.613 227.6 354.195 240.573 377.485 244.182C402.325 248.114 427.727 246.468 451.855 239.364L456.849 231.773C473.268 194.468 470.455 156.479 464.638 129.86Z" fill="#111111"/>
<path d="M313.16 226.769C315.043 219.67 312.794 211.107 306.622 204.663C297.834 195.485 284.447 194.067 276.714 201.5C268.981 208.933 269.843 222.398 278.625 231.57C285.428 238.676 294.971 241.121 302.547 238.421C311.041 241.183 321.102 238.941 321.102 238.941L323.954 235.061L313.16 226.769Z" fill="url(#paint13_linear_2913_5454)"/>
<path d="M278.665 151.836C278.665 132.469 272.284 116.694 264.303 115.988H264.196C264.043 115.988 263.897 115.988 263.745 115.988C263.593 115.988 263.44 115.988 263.288 115.988H247.032V187.719H264.303V187.685C272.284 186.973 278.665 171.198 278.665 151.836Z" fill="url(#paint14_linear_2913_5454)"/>
<path d="M247.568 187.713C255.808 187.713 262.488 171.648 262.488 151.831C262.488 132.014 255.808 115.949 247.568 115.949C239.327 115.949 232.647 132.014 232.647 151.831C232.647 171.648 239.327 187.713 247.568 187.713Z" fill="url(#paint15_linear_2913_5454)"/>
<path d="M337.883 275.822L319.778 324.864L326.74 328.253C326.74 328.253 367.526 337.025 405.917 319.68C405.917 319.68 419.845 295.76 424.816 270.841L337.883 275.822Z" fill="url(#paint16_linear_2913_5454)"/>
<path d="M337.883 275.822L330.07 296.986L332.81 299.934C351.675 300.533 394.598 297.454 422.432 280.533C423.339 277.353 424.123 274.105 424.793 270.841L337.883 275.822Z" fill="#343D42"/>
<path d="M361.06 290.778L378.663 290.479C378.663 290.479 378.066 306.028 371.702 317.086L353 318.781C357.214 309.958 359.938 300.495 361.06 290.778Z" fill="url(#paint17_linear_2913_5454)"/>
<path d="M407.271 301.257C408.15 294.867 404.495 289.083 399.108 288.339C393.72 287.595 388.64 292.172 387.761 298.562C386.882 304.952 390.536 310.736 395.924 311.48C401.311 312.225 406.391 307.648 407.271 301.257Z" fill="url(#paint18_linear_2913_5454)"/>
<path d="M209.199 182.45C214.424 194.763 237.856 246.103 296.104 271.638C373.889 305.747 445.536 265.821 452.604 261.539C452.909 261.161 457.429 256.49 457.243 250.379C457.147 247.278 455.828 243.5 455.062 242.957C439.768 252.474 422.958 259.29 405.364 263.11C357.785 273.361 319.124 258.077 305.653 251.972C251.288 227.318 228.707 180.337 223.229 167.979C219.783 168.017 216.465 169.291 213.878 171.572C209.194 175.779 209.188 181.569 209.199 182.45Z" fill="#475259"/>
<path d="M302.733 264.589C380.518 298.692 457.43 256.49 457.244 250.379C457.148 247.278 455.829 243.5 455.062 242.957C439.769 252.474 422.959 259.29 405.364 263.11C357.786 273.361 319.124 258.077 305.653 251.972C251.288 227.318 228.708 180.337 223.229 167.979C219.783 168.017 216.465 169.291 213.878 171.572C209.194 175.779 244.49 239.055 302.733 264.589Z" fill="#343D42"/>
<path d="M248.813 270.633C257.487 262.725 270.547 264.019 278.123 273.169C286.33 283.115 303.595 299.184 335.357 310.022C335.357 310.022 349.882 314.947 346.5 330.355C344.736 338.392 340.334 343.413 318.847 345.339C297.361 347.265 281.138 340.759 271.365 335.636C257.194 328.198 246.564 312.942 242.19 301.381C239.292 293.801 239.484 279.144 248.813 270.633Z" fill="url(#paint19_linear_2913_5454)"/>
<path d="M260.565 19.4004H252.076V118.01H260.565V19.4004Z" fill="#475259"/>
<path d="M256.322 22.8633C262.622 22.8633 267.73 17.7452 267.73 11.4317C267.73 5.11812 262.622 0 256.322 0C250.021 0 244.913 5.11812 244.913 11.4317C244.913 17.7452 250.021 22.8633 256.322 22.8633Z" fill="url(#paint20_linear_2913_5454)"/>
<path d="M383.753 198.496C391.137 198.496 397.123 192.497 397.123 185.098C397.123 177.699 391.137 171.701 383.753 171.701C376.369 171.701 370.383 177.699 370.383 185.098C370.383 192.497 376.369 198.496 383.753 198.496Z" fill="white"/>
<path d="M447.988 198.496C455.372 198.496 461.358 192.497 461.358 185.098C461.358 177.699 455.372 171.701 447.988 171.701C440.604 171.701 434.618 177.699 434.618 185.098C434.618 192.497 440.604 198.496 447.988 198.496Z" fill="white"/>
<path d="M420.109 232.304C424.723 232.304 428.463 226.948 428.463 220.341C428.463 213.735 424.723 208.379 420.109 208.379C415.496 208.379 411.756 213.735 411.756 220.341C411.756 226.948 415.496 232.304 420.109 232.304Z" fill="white"/>
<path d="M350.745 154.158C362.683 140.071 381.78 140.071 381.78 140.071L385.76 151.237C368.252 150.707 355.254 162.663 355.254 162.663L350.745 154.158Z" fill="white"/>
<path d="M436.422 151.368C436.422 151.368 457.114 155.491 461.358 161.602L463.742 151.368C463.742 151.368 452.34 142.201 436.422 141.67" fill="white"/>
<path opacity="0.25" d="M448.292 92.7128C422.749 86.8055 396.169 87.0843 370.755 93.5262C333.272 103.021 308.223 136.451 310.922 172.938C311.001 174.011 311.09 175.084 311.187 176.157C314.259 210.576 341.433 238.591 377.485 244.177C402.372 248.116 427.822 246.457 451.989 239.319C456.36 238.024 460.615 236.367 464.711 234.366C479.738 218.111 489.924 197.947 493.131 175.287C496.44 151.921 491.874 129.035 481.294 108.77C471.682 100.931 460.384 95.4343 448.292 92.7128Z" fill="url(#paint21_linear_2913_5454)"/>
<path d="M447.981 106.98C447.981 106.98 467.986 105.523 481.384 121.202" stroke="white" stroke-width="7.99702" stroke-miterlimit="10" stroke-linecap="round"/>
<path d="M437.245 110.956C439.455 110.956 441.247 109.16 441.247 106.946C441.247 104.731 439.455 102.936 437.245 102.936C435.035 102.936 433.243 104.731 433.243 106.946C433.243 109.16 435.035 110.956 437.245 110.956Z" fill="white"/>
<defs>
<filter id="filter0_f_2913_5454" x="0.0244122" y="11.6553" width="537.997" height="538.977" filterUnits="userSpaceOnUse" color-interpolation-filters="sRGB">
<feFlood flood-opacity="0" result="BackgroundImageFix"/>
<feBlend mode="normal" in="SourceGraphic" in2="BackgroundImageFix" result="shape"/>
<feGaussianBlur stdDeviation="14" result="effect1_foregroundBlur_2913_5454"/>
</filter>
<linearGradient id="paint0_linear_2913_5454" x1="510.021" y1="-45.9989" x2="84.8521" y2="378.716" gradientUnits="userSpaceOnUse">
<stop stop-color="#FFC978"/>
<stop offset="1" stop-color="#FFC2C2" stop-opacity="0"/>
</linearGradient>
<linearGradient id="paint1_linear_2913_5454" x1="68.1131" y1="364.238" x2="131.618" y2="269.539" gradientUnits="userSpaceOnUse">
<stop stop-color="#FF7020"/>
<stop offset="1" stop-color="#FFDA1B"/>
</linearGradient>
<linearGradient id="paint2_linear_2913_5454" x1="100.079" y1="322.598" x2="146.126" y2="256.277" gradientUnits="userSpaceOnUse">
<stop stop-color="#FF7020"/>
<stop offset="1" stop-color="#FFDA1B"/>
</linearGradient>
<linearGradient id="paint3_linear_2913_5454" x1="405.916" y1="295.659" x2="490.043" y2="267.348" gradientUnits="userSpaceOnUse">
<stop stop-color="#CDCDCD"/>
<stop offset="0.744129" stop-color="white"/>
</linearGradient>
<linearGradient id="paint4_linear_2913_5454" x1="194.364" y1="308.412" x2="194.364" y2="415.535" gradientUnits="userSpaceOnUse">
<stop stop-color="white"/>
<stop offset="1" stop-color="#E7E7E7"/>
</linearGradient>
<linearGradient id="paint5_linear_2913_5454" x1="201.86" y1="308.412" x2="187.265" y2="377.36" gradientUnits="userSpaceOnUse">
<stop stop-color="#888A8C"/>
<stop offset="1" stop-color="#888A8C" stop-opacity="0"/>
</linearGradient>
<linearGradient id="paint6_linear_2913_5454" x1="303.257" y1="371.309" x2="303.257" y2="405.058" gradientUnits="userSpaceOnUse">
<stop stop-color="#888A8C"/>
<stop offset="1" stop-color="#888A8C" stop-opacity="0"/>
</linearGradient>
<linearGradient id="paint7_linear_2913_5454" x1="172.167" y1="106.756" x2="172.167" y2="290.241" gradientUnits="userSpaceOnUse">
<stop stop-color="white"/>
<stop offset="1" stop-color="#DCDCDC"/>
</linearGradient>
<linearGradient id="paint8_linear_2913_5454" x1="197.777" y1="93.0229" x2="163.289" y2="310.752" gradientUnits="userSpaceOnUse">
<stop stop-color="#888A8C"/>
<stop offset="0.766708" stop-color="#888A8C" stop-opacity="0.233292"/>
<stop offset="1" stop-color="#888A8C" stop-opacity="0"/>
</linearGradient>
<linearGradient id="paint9_linear_2913_5454" x1="312.165" y1="167.367" x2="387.62" y2="382.993" gradientUnits="userSpaceOnUse">
<stop offset="0.00390147" stop-color="#999999"/>
<stop offset="1" stop-color="white"/>
</linearGradient>
<linearGradient id="paint10_linear_2913_5454" x1="333.431" y1="227.787" x2="371.961" y2="38.6577" gradientUnits="userSpaceOnUse">
<stop stop-color="#E2E2E2"/>
<stop offset="1" stop-color="white"/>
</linearGradient>
<linearGradient id="paint11_linear_2913_5454" x1="348.963" y1="92.6455" x2="426.546" y2="259.022" gradientUnits="userSpaceOnUse">
<stop stop-color="#888A8C"/>
<stop offset="1" stop-color="white"/>
</linearGradient>
<linearGradient id="paint12_linear_2913_5454" x1="396.074" y1="82.1341" x2="384.235" y2="253.041" gradientUnits="userSpaceOnUse">
<stop offset="0.28" stop-color="#FFA535"/>
<stop offset="0.38" stop-color="#FF9930"/>
<stop offset="0.59" stop-color="#FF8527"/>
<stop offset="0.79" stop-color="#FF7922"/>
<stop offset="1" stop-color="#FF7520"/>
</linearGradient>
<linearGradient id="paint13_linear_2913_5454" x1="297.693" y1="196.734" x2="297.693" y2="239.8" gradientUnits="userSpaceOnUse">
<stop stop-color="#475259"/>
<stop offset="1" stop-color="#A2A2A2"/>
</linearGradient>
<linearGradient id="paint14_linear_2913_5454" x1="262.849" y1="115.988" x2="262.849" y2="187.719" gradientUnits="userSpaceOnUse">
<stop stop-color="#C9C9C9"/>
<stop offset="1" stop-color="#3A474F"/>
</linearGradient>
<linearGradient id="paint15_linear_2913_5454" x1="247.568" y1="115.949" x2="247.568" y2="187.713" gradientUnits="userSpaceOnUse">
<stop stop-color="#888A8B"/>
<stop offset="1" stop-color="#343D42"/>
</linearGradient>
<linearGradient id="paint16_linear_2913_5454" x1="372.297" y1="270.841" x2="376.175" y2="342.958" gradientUnits="userSpaceOnUse">
<stop stop-color="#475259"/>
<stop offset="1" stop-color="#E8E8E8"/>
</linearGradient>
<linearGradient id="paint17_linear_2913_5454" x1="349.387" y1="298.443" x2="386.713" y2="329.183" gradientUnits="userSpaceOnUse">
<stop stop-color="#FF7020"/>
<stop offset="1" stop-color="#FFDA1B"/>
</linearGradient>
<linearGradient id="paint18_linear_2913_5454" x1="391.211" y1="314.149" x2="422.97" y2="291.893" gradientUnits="userSpaceOnUse">
<stop stop-color="#FF7020"/>
<stop offset="1" stop-color="#FFDA1B"/>
</linearGradient>
<linearGradient id="paint19_linear_2913_5454" x1="261.72" y1="285.883" x2="337.726" y2="334.153" gradientUnits="userSpaceOnUse">
<stop stop-color="#E8E8E8"/>
<stop offset="1" stop-color="white"/>
</linearGradient>
<linearGradient id="paint20_linear_2913_5454" x1="241.701" y1="6.43363" x2="272.275" y2="34.1468" gradientUnits="userSpaceOnUse">
<stop stop-color="#FF7020"/>
<stop offset="1" stop-color="#FFDA1B"/>
</linearGradient>
<linearGradient id="paint21_linear_2913_5454" x1="408.351" y1="105.613" x2="390.054" y2="288.535" gradientUnits="userSpaceOnUse">
<stop stop-color="white"/>
<stop offset="0.16" stop-color="#D5D5D5"/>
<stop offset="0.32" stop-color="#B3B3B3"/>
<stop offset="0.49" stop-color="#989898"/>
<stop offset="0.65" stop-color="#848484"/>
<stop offset="0.82" stop-color="#797979"/>
<stop offset="1" stop-color="#757575"/>
</linearGradient>
</defs>
</svg>
