<svg width="48" height="48" viewBox="0 0 48 48" fill="none" xmlns="http://www.w3.org/2000/svg">
<g clip-path="url(#clip0_1210_2335)">
<path d="M32.6296 17.299C32.6296 18.824 33.2354 20.2865 34.3138 21.3649C35.3921 22.4432 36.8546 23.049 38.3796 23.049C39.9046 23.049 41.3672 22.4432 42.4455 21.3649C43.5238 20.2865 44.1296 18.824 44.1296 17.299C44.1296 15.774 43.5238 14.3115 42.4455 13.2331C41.3672 12.1548 39.9046 11.549 38.3796 11.549C36.8546 11.549 35.3921 12.1548 34.3138 13.2331C33.2354 14.3115 32.6296 15.774 32.6296 17.299Z" stroke="black" stroke-width="2" stroke-linecap="round" stroke-linejoin="round"/>
<path d="M9.62964 3.88232C8.10464 3.88232 6.64211 4.48813 5.56377 5.56646C4.48544 6.64479 3.87964 8.10733 3.87964 9.63232V17.299C3.87964 19.8406 4.88931 22.2782 6.68653 24.0754C8.48376 25.8727 10.9213 26.8823 13.463 26.8823C16.0046 26.8823 18.4422 25.8727 20.2394 24.0754C22.0366 22.2782 23.0463 19.8406 23.0463 17.299V9.63232C23.0463 8.10733 22.4405 6.64479 21.3622 5.56646C20.2838 4.48813 18.8213 3.88232 17.2963 3.88232" stroke="black" stroke-width="2" stroke-linecap="round" stroke-linejoin="round"/>
<path d="M13.463 26.8823V42.2157C13.463 43.2323 13.8668 44.2074 14.5857 44.9263C15.3046 45.6451 16.2796 46.049 17.2963 46.049C18.3129 46.049 19.288 45.6451 20.0069 44.9263C20.7258 44.2074 21.1296 43.2323 21.1296 42.2157V31.1603C21.1296 29.8895 21.6345 28.6707 22.5331 27.7721C23.4317 26.8735 24.6505 26.3687 25.9213 26.3687C27.1921 26.3687 28.4109 26.8735 29.3095 27.7721C30.2081 28.6707 30.713 29.8895 30.713 31.1603V38.3823C30.713 39.399 31.1168 40.374 31.8357 41.0929C32.5546 41.8118 33.5296 42.2157 34.5463 42.2157C35.563 42.2157 36.538 41.8118 37.2569 41.0929C37.9758 40.374 38.3796 39.399 38.3796 38.3823V23.049" stroke="black" stroke-width="2" stroke-linecap="round" stroke-linejoin="round"/>
<path d="M9.62964 1.96564V6.7573" stroke="black" stroke-width="2" stroke-linecap="round" stroke-linejoin="round"/>
<path d="M17.2963 1.96564V6.7573" stroke="black" stroke-width="2" stroke-linecap="round" stroke-linejoin="round"/>
</g>
<defs>
<clipPath id="clip0_1210_2335">
<rect width="48" height="48" fill="white" transform="translate(0.00463867 0.00732422)"/>
</clipPath>
</defs>
</svg>
