<svg width="48" height="49" viewBox="0 0 48 49" fill="none" xmlns="http://www.w3.org/2000/svg">
<g clip-path="url(#clip0_1210_2293)">
<path d="M1.00705 28.2401H12.5076C12.6629 28.2401 12.816 28.204 12.9548 28.1346C13.0937 28.0651 13.2145 27.9643 13.3076 27.8401L15.1597 25.372C15.2556 25.244 15.3808 25.1408 15.5247 25.0712C15.6687 25.0016 15.8273 24.9675 15.9872 24.9718C16.147 24.9761 16.3035 25.0187 16.4435 25.096C16.5836 25.1733 16.703 25.283 16.7918 25.416L19.0519 28.8162C19.1492 28.9618 19.2829 29.0793 19.4398 29.157C19.5967 29.2347 19.7713 29.2698 19.9461 29.2589C20.1208 29.248 20.2896 29.1914 20.4356 29.0947C20.5816 28.9981 20.6997 28.8648 20.778 28.7082L23.8582 22.5479C23.9482 22.3676 24.0906 22.2188 24.2667 22.1209C24.4428 22.0229 24.6444 21.9805 24.845 21.9991C25.0457 22.0177 25.236 22.0964 25.3911 22.2251C25.5462 22.3537 25.6588 22.5261 25.7142 22.7199L28.3024 31.7783C28.3575 31.9722 28.47 32.1448 28.625 32.2736C28.7799 32.4025 28.9702 32.4815 29.1709 32.5003C29.3715 32.5191 29.5732 32.4768 29.7494 32.3791C29.9257 32.2813 30.0682 32.1325 30.1585 31.9523L31.7325 28.8042C31.8154 28.6379 31.9429 28.498 32.1008 28.4001C32.2588 28.3023 32.4408 28.2503 32.6266 28.2501H47.0093" stroke="black" stroke-width="2.0001" stroke-linecap="round" stroke-linejoin="round"/>
<path d="M42.519 24.2388C44.0643 21.1788 44.9146 17.8152 45.0091 14.3884C45.0091 -0.990392 26.3762 -2.19045 24.0081 13.2103C21.64 -2.19045 3.00705 -0.990391 3.00705 15.5704C3.04506 18.5509 3.66397 21.4953 4.82914 24.2388" stroke="black" stroke-width="2.0001" stroke-linecap="round" stroke-linejoin="round"/>
<path d="M9.46732 32.2399C13.4306 37.3477 18.1198 41.8483 23.386 45.5985C23.5643 45.7251 23.7792 45.7897 23.9978 45.7824C24.2163 45.7752 24.4265 45.6966 24.596 45.5585C29.3991 41.6145 33.7474 37.1474 37.5607 32.2399" stroke="black" stroke-width="2.0001" stroke-linecap="round" stroke-linejoin="round"/>
</g>
<defs>
<clipPath id="clip0_1210_2293">
<rect width="48.0023" height="48.0023" fill="white" transform="translate(0.00695801 0.00976562)"/>
</clipPath>
</defs>
</svg>
