<svg width="48" height="48" viewBox="0 0 48 48" fill="none" xmlns="http://www.w3.org/2000/svg">
<g clip-path="url(#clip0_1210_2341)">
<path d="M13.889 36.2207C15.5895 35.6217 17.2339 34.8741 18.8032 33.9866" stroke="black" stroke-width="2.0001" stroke-linecap="round" stroke-linejoin="round"/>
<path d="M1.00238 40.0088C1.00238 41.8654 1.73991 43.646 3.05273 44.9588C4.36555 46.2716 6.14611 47.0092 8.00272 47.0092C9.85933 47.0092 11.6399 46.2716 12.9527 44.9588C14.2655 43.646 15.0031 41.8654 15.0031 40.0088C15.0031 38.1522 14.2655 36.3717 12.9527 35.0588C11.6399 33.746 9.85933 33.0085 8.00272 33.0085C6.14611 33.0085 4.36555 33.746 3.05273 35.0588C1.73991 36.3717 1.00238 38.1522 1.00238 40.0088Z" stroke="black" stroke-width="2.0001" stroke-linecap="round" stroke-linejoin="round"/>
<path d="M6.00256 40.0091C6.00256 40.5395 6.21329 41.0483 6.58838 41.4234C6.96347 41.7984 7.4722 42.0092 8.00266 42.0092C8.53312 42.0092 9.04185 41.7984 9.41694 41.4234C9.79203 41.0483 10.0028 40.5395 10.0028 40.0091C10.0028 39.4786 9.79203 38.9699 9.41694 38.5948C9.04185 38.2197 8.53312 38.009 8.00266 38.009C7.4722 38.009 6.96347 38.2197 6.58838 38.5948C6.21329 38.9699 6.00256 39.4786 6.00256 40.0091Z" stroke="black" stroke-width="2.0001" stroke-linecap="round" stroke-linejoin="round"/>
<path d="M42.7264 45.0458L41.8704 46.8459L31.6379 40.3476C30.7061 39.7547 30.0229 38.842 29.7168 37.7808C29.4107 36.7197 29.5028 35.5833 29.9758 34.5853C30.4481 33.587 31.2687 32.7957 32.2834 32.36C33.2981 31.9243 34.437 31.8742 35.4861 32.2192L47.0046 36.0073L46.1486 37.8074" stroke="black" stroke-width="2.0001" stroke-linecap="round" stroke-linejoin="round"/>
<path d="M25.9836 29.187C31.2858 25.1748 40.0042 17.5864 40.0042 11.0701C40.0042 0.101556 26.2396 -2.89059 22.0034 7.07989C17.7672 -2.89059 4.0025 0.101556 4.0025 11.0701C4.0025 20.4325 21.2693 31.5291 22.0034 32.0091C24.3575 33.5492 28.7197 35.4093 29.8498 34.8772" stroke="black" stroke-width="2.0001" stroke-linecap="round" stroke-linejoin="round"/>
</g>
<defs>
<clipPath id="clip0_1210_2341">
<rect width="48.0023" height="48.0023" fill="white" transform="translate(0.00231934 0.00732422)"/>
</clipPath>
</defs>
</svg>
